<svg width="17" height="16" viewBox="0 0 17 16" fill="none" xmlns="http://www.w3.org/2000/svg">
<path d="M16.0163 4.48057V11.5192C16.0163 13.9938 14.008 16 11.5311 16H3.9104C1.75076 16 0 14.251 0 12.0935V4.48057C0 2.0061 2.00813 0 4.48515 0H11.5311C14.008 0 16.0163 2.0061 16.0163 4.48057Z" fill="#3861B6"/>
<path d="M4.63877 3.57605C5.22743 3.57605 5.70435 4.0533 5.70435 4.64056C5.70435 5.22911 5.22743 5.70617 4.63877 5.70617C4.04839 5.70617 3.57227 5.22911 3.57227 4.64056C3.57227 4.0533 4.04839 3.57605 4.63877 3.57605ZM3.7181 6.51424H5.5587V12.4239H3.7181V6.51424Z" fill="white"/>
<path d="M6.7124 6.51411H8.47502V7.32163H8.49986C8.74519 6.85685 9.34521 6.36694 10.2398 6.36694C12.0999 6.36694 12.4439 7.59047 12.4439 9.18235V12.4238H10.6073V9.55021C10.6073 8.86468 10.594 7.98284 9.65152 7.98284C8.69476 7.98284 8.54887 8.72943 8.54887 9.50046V12.4238H6.7124V6.51411Z" fill="white"/>
</svg>
